<svg width="1440" height="560" preserveAspectRatio="none" viewBox="0 0 1440 560">
    <g mask="url(&quot;#SvgjsMask1033&quot;)" fill="none">
        <path d="M310.848,331.263C365.636,331.343,423.018,313.894,449.62,265.998C475.652,219.127,456.746,163.553,429.71,117.253C402.969,71.458,363.807,31.108,310.848,28.344C253.355,25.344,197.321,53.856,168.364,103.614C139.246,153.648,142.067,216.521,172.78,265.592C201.76,311.894,256.225,331.183,310.848,331.263" fill="rgba(0, 20, 255, 0.4)" class="triangle-float2"></path>
        <path d="M1308.948,500.629C1363.232,501.34,1425.186,501.32,1453.989,455.302C1483.911,407.495,1466.438,345.649,1435.439,298.533C1407.63,256.267,1359.521,233.401,1308.948,234.856C1260.914,236.238,1220.358,264.985,1194.468,305.468C1165.962,350.042,1143.572,405.948,1170.343,451.586C1196.92,496.893,1256.426,499.941,1308.948,500.629" fill="rgba(0, 20, 255, 0.4)" class="triangle-float3"></path>
        <path d="M1147.824,226.331C1167.601,226.547,1188.772,222.09,1198.969,205.143C1209.412,187.787,1205.587,165.623,1194.582,148.618C1184.509,133.054,1166.35,126.814,1147.824,126.115C1127.654,125.354,1105.305,127.777,1094.523,144.84C1083.197,162.763,1086.969,186.303,1098.575,204.047C1109.146,220.209,1128.513,226.12,1147.824,226.331" fill="rgba(0, 20, 255, 0.4)" class="triangle-float1"></path>
        <path d="M402.164,352.278C423.77,352.758,445.906,346.548,457.781,328.492C470.821,308.664,472.778,283.008,461.427,262.166C449.597,240.444,426.864,225.048,402.164,226.372C379.179,227.604,363.533,247.528,352.973,267.981C343.438,286.45,340.192,308.161,350.668,326.113C361.069,343.937,381.532,351.82,402.164,352.278" fill="rgba(0, 20, 255, 0.4)" class="triangle-float1"></path>
        <path d="M125.183,184.028C141.493,183.921,158.224,178.419,166.338,164.27C174.418,150.18,170.423,133.143,162.49,118.97C154.327,104.386,141.896,90.76,125.183,90.746C108.452,90.732,96.034,104.36,87.766,118.906C79.619,133.239,74.869,150.52,83.083,164.815C91.32,179.15,108.65,184.136,125.183,184.028" fill="rgba(0, 20, 255, 0.4)" class="triangle-float1"></path>
        <path d="M156.182,388.359C195.788,387.946,236.28,373.046,255.027,338.155C273.021,304.665,259.069,265.583,239.739,232.846C220.829,200.82,193.35,172.099,156.182,170.755C116.959,169.336,81.763,192.81,61.456,226.397C40.361,261.287,33.119,305.059,53.703,340.253C74.122,375.166,115.738,388.781,156.182,388.359" fill="rgba(0, 20, 255, 0.4)" class="triangle-float3"></path>
    </g>
    <defs>
        <mask id="SvgjsMask1033">
            <rect width="1440" height="560" fill="#ffffff"></rect>
        </mask>
        <style>
            @keyframes float1 {
                    0%{transform: translate(0, 0)}
                    50%{transform: translate(-10px, 0)}
                    100%{transform: translate(0, 0)}
                }

                .triangle-float1 {
                    animation: float1 5s infinite;
                }

                @keyframes float2 {
                    0%{transform: translate(0, 0)}
                    50%{transform: translate(-5px, -5px)}
                    100%{transform: translate(0, 0)}
                }

                .triangle-float2 {
                    animation: float2 4s infinite;
                }

                @keyframes float3 {
                    0%{transform: translate(0, 0)}
                    50%{transform: translate(0, -10px)}
                    100%{transform: translate(0, 0)}
                }

                .triangle-float3 {
                    animation: float3 6s infinite;
                }
        </style>
    </defs>
</svg>
